<mxfile host="app.diagrams.net" modified="2023-12-17T19:58:03.274Z" agent="Mozilla/5.0 (Windows NT 10.0; Win64; x64) AppleWebKit/537.36 (KHTML, like Gecko) Chrome/120.0.0.0 Safari/537.36" etag="v13VFaLkcFl0NA__lWTA" version="22.1.11" type="github">
  <diagram name="페이지-1" id="B5OyfjskEJdqnIWNUgS6">
    <mxGraphModel dx="1618" dy="650" grid="1" gridSize="10" guides="1" tooltips="1" connect="1" arrows="1" fold="1" page="1" pageScale="1" pageWidth="827" pageHeight="1169" math="0" shadow="0">
      <root>
        <mxCell id="0" />
        <mxCell id="1" parent="0" />
        <mxCell id="EyhtXwN8njXN5byT3Yx3-49" value="" style="rounded=0;whiteSpace=wrap;html=1;fillColor=#f8cecc;strokeColor=#b85450;" parent="1" vertex="1">
          <mxGeometry x="520" y="311" width="120" height="530" as="geometry" />
        </mxCell>
        <mxCell id="EyhtXwN8njXN5byT3Yx3-50" value="클러스터1" style="whiteSpace=wrap;html=1;" parent="1" vertex="1">
          <mxGeometry x="360" y="561" width="120" height="60" as="geometry" />
        </mxCell>
        <mxCell id="EyhtXwN8njXN5byT3Yx3-51" value="Pod1" style="whiteSpace=wrap;html=1;" parent="1" vertex="1">
          <mxGeometry x="650" y="341" width="120" height="60" as="geometry" />
        </mxCell>
        <mxCell id="EyhtXwN8njXN5byT3Yx3-52" value="Pod3" style="whiteSpace=wrap;html=1;" parent="1" vertex="1">
          <mxGeometry x="650" y="521" width="120" height="60" as="geometry" />
        </mxCell>
        <mxCell id="EyhtXwN8njXN5byT3Yx3-53" value="Pod2" style="whiteSpace=wrap;html=1;" parent="1" vertex="1">
          <mxGeometry x="650" y="431" width="120" height="60" as="geometry" />
        </mxCell>
        <mxCell id="EyhtXwN8njXN5byT3Yx3-54" value="Pod4" style="whiteSpace=wrap;html=1;" parent="1" vertex="1">
          <mxGeometry x="650" y="611" width="120" height="60" as="geometry" />
        </mxCell>
        <mxCell id="EyhtXwN8njXN5byT3Yx3-55" value="Pod6" style="whiteSpace=wrap;html=1;" parent="1" vertex="1">
          <mxGeometry x="650" y="791" width="120" height="60" as="geometry" />
        </mxCell>
        <mxCell id="EyhtXwN8njXN5byT3Yx3-56" value="Pod5" style="whiteSpace=wrap;html=1;" parent="1" vertex="1">
          <mxGeometry x="650" y="701" width="120" height="60" as="geometry" />
        </mxCell>
        <mxCell id="EyhtXwN8njXN5byT3Yx3-57" value="" style="endArrow=none;html=1;rounded=0;" parent="1" edge="1">
          <mxGeometry width="50" height="50" relative="1" as="geometry">
            <mxPoint x="650" y="461" as="sourcePoint" />
            <mxPoint x="650" y="371" as="targetPoint" />
            <Array as="points">
              <mxPoint x="610" y="461" />
              <mxPoint x="610" y="371" />
            </Array>
          </mxGeometry>
        </mxCell>
        <mxCell id="EyhtXwN8njXN5byT3Yx3-58" value="개발" style="text;html=1;align=center;verticalAlign=middle;resizable=0;points=[];autosize=1;strokeColor=none;fillColor=none;" parent="1" vertex="1">
          <mxGeometry x="555" y="399" width="50" height="30" as="geometry" />
        </mxCell>
        <mxCell id="EyhtXwN8njXN5byT3Yx3-59" value="Name Space" style="text;html=1;align=center;verticalAlign=middle;resizable=0;points=[];autosize=1;strokeColor=none;fillColor=none;" parent="1" vertex="1">
          <mxGeometry x="535" y="319" width="90" height="30" as="geometry" />
        </mxCell>
        <mxCell id="EyhtXwN8njXN5byT3Yx3-60" value="" style="endArrow=none;html=1;rounded=0;" parent="1" edge="1">
          <mxGeometry width="50" height="50" relative="1" as="geometry">
            <mxPoint x="650" y="641" as="sourcePoint" />
            <mxPoint x="650" y="551" as="targetPoint" />
            <Array as="points">
              <mxPoint x="610" y="641" />
              <mxPoint x="610" y="551" />
            </Array>
          </mxGeometry>
        </mxCell>
        <mxCell id="EyhtXwN8njXN5byT3Yx3-61" value="" style="endArrow=none;html=1;rounded=0;" parent="1" edge="1">
          <mxGeometry width="50" height="50" relative="1" as="geometry">
            <mxPoint x="650" y="821" as="sourcePoint" />
            <mxPoint x="650" y="731" as="targetPoint" />
            <Array as="points">
              <mxPoint x="610" y="821" />
              <mxPoint x="610" y="731" />
            </Array>
          </mxGeometry>
        </mxCell>
        <mxCell id="EyhtXwN8njXN5byT3Yx3-62" value="빌드&lt;br&gt;/테스트" style="text;html=1;align=center;verticalAlign=middle;resizable=0;points=[];autosize=1;strokeColor=none;fillColor=none;" parent="1" vertex="1">
          <mxGeometry x="550" y="571" width="60" height="40" as="geometry" />
        </mxCell>
        <mxCell id="EyhtXwN8njXN5byT3Yx3-63" value="운영" style="text;html=1;align=center;verticalAlign=middle;resizable=0;points=[];autosize=1;strokeColor=none;fillColor=none;" parent="1" vertex="1">
          <mxGeometry x="555" y="761" width="50" height="30" as="geometry" />
        </mxCell>
        <mxCell id="EyhtXwN8njXN5byT3Yx3-64" value="Node&lt;br&gt;컨테이너" style="whiteSpace=wrap;html=1;" parent="1" vertex="1">
          <mxGeometry x="820" y="311" width="120" height="60" as="geometry" />
        </mxCell>
        <mxCell id="EyhtXwN8njXN5byT3Yx3-65" value="Apache&lt;br&gt;컨테이너" style="whiteSpace=wrap;html=1;" parent="1" vertex="1">
          <mxGeometry x="820" y="371" width="120" height="60" as="geometry" />
        </mxCell>
        <mxCell id="EyhtXwN8njXN5byT3Yx3-66" value="" style="endArrow=none;html=1;rounded=0;exitX=0;exitY=0.5;exitDx=0;exitDy=0;entryX=0;entryY=0.5;entryDx=0;entryDy=0;" parent="1" source="EyhtXwN8njXN5byT3Yx3-64" target="EyhtXwN8njXN5byT3Yx3-65" edge="1">
          <mxGeometry width="50" height="50" relative="1" as="geometry">
            <mxPoint x="860" y="511" as="sourcePoint" />
            <mxPoint x="790" y="411" as="targetPoint" />
            <Array as="points">
              <mxPoint x="790" y="341" />
              <mxPoint x="770" y="371" />
              <mxPoint x="790" y="401" />
            </Array>
          </mxGeometry>
        </mxCell>
        <mxCell id="EyhtXwN8njXN5byT3Yx3-67" value="" style="endArrow=none;html=1;rounded=0;entryX=1;entryY=0.5;entryDx=0;entryDy=0;" parent="1" target="EyhtXwN8njXN5byT3Yx3-53" edge="1">
          <mxGeometry width="50" height="50" relative="1" as="geometry">
            <mxPoint x="820" y="461" as="sourcePoint" />
            <mxPoint x="880" y="531" as="targetPoint" />
          </mxGeometry>
        </mxCell>
        <mxCell id="EyhtXwN8njXN5byT3Yx3-68" value="MongoDB&lt;br&gt;컨테이너" style="whiteSpace=wrap;html=1;" parent="1" vertex="1">
          <mxGeometry x="820" y="431" width="120" height="60" as="geometry" />
        </mxCell>
        <mxCell id="EyhtXwN8njXN5byT3Yx3-69" value="Node&lt;br&gt;컨테이너" style="whiteSpace=wrap;html=1;" parent="1" vertex="1">
          <mxGeometry x="820" y="491" width="120" height="60" as="geometry" />
        </mxCell>
        <mxCell id="EyhtXwN8njXN5byT3Yx3-70" value="Apache&lt;br&gt;컨테이너" style="whiteSpace=wrap;html=1;" parent="1" vertex="1">
          <mxGeometry x="820" y="551" width="120" height="60" as="geometry" />
        </mxCell>
        <mxCell id="EyhtXwN8njXN5byT3Yx3-71" value="" style="endArrow=none;html=1;rounded=0;exitX=0;exitY=0.5;exitDx=0;exitDy=0;entryX=0;entryY=0.5;entryDx=0;entryDy=0;" parent="1" source="EyhtXwN8njXN5byT3Yx3-69" target="EyhtXwN8njXN5byT3Yx3-70" edge="1">
          <mxGeometry width="50" height="50" relative="1" as="geometry">
            <mxPoint x="860" y="691" as="sourcePoint" />
            <mxPoint x="790" y="591" as="targetPoint" />
            <Array as="points">
              <mxPoint x="790" y="521" />
              <mxPoint x="770" y="551" />
              <mxPoint x="790" y="581" />
            </Array>
          </mxGeometry>
        </mxCell>
        <mxCell id="EyhtXwN8njXN5byT3Yx3-72" value="" style="endArrow=none;html=1;rounded=0;entryX=1;entryY=0.5;entryDx=0;entryDy=0;" parent="1" edge="1">
          <mxGeometry width="50" height="50" relative="1" as="geometry">
            <mxPoint x="820" y="641" as="sourcePoint" />
            <mxPoint x="770" y="641" as="targetPoint" />
          </mxGeometry>
        </mxCell>
        <mxCell id="EyhtXwN8njXN5byT3Yx3-73" value="MongoDB&lt;br&gt;컨테이너" style="whiteSpace=wrap;html=1;" parent="1" vertex="1">
          <mxGeometry x="820" y="611" width="120" height="60" as="geometry" />
        </mxCell>
        <mxCell id="EyhtXwN8njXN5byT3Yx3-74" value="Node&lt;br&gt;컨테이너" style="whiteSpace=wrap;html=1;" parent="1" vertex="1">
          <mxGeometry x="820" y="671" width="120" height="60" as="geometry" />
        </mxCell>
        <mxCell id="EyhtXwN8njXN5byT3Yx3-75" value="Apache&lt;br&gt;컨테이너" style="whiteSpace=wrap;html=1;" parent="1" vertex="1">
          <mxGeometry x="820" y="731" width="120" height="60" as="geometry" />
        </mxCell>
        <mxCell id="EyhtXwN8njXN5byT3Yx3-76" value="" style="endArrow=none;html=1;rounded=0;exitX=0;exitY=0.5;exitDx=0;exitDy=0;entryX=0;entryY=0.5;entryDx=0;entryDy=0;" parent="1" source="EyhtXwN8njXN5byT3Yx3-74" target="EyhtXwN8njXN5byT3Yx3-75" edge="1">
          <mxGeometry width="50" height="50" relative="1" as="geometry">
            <mxPoint x="860" y="871" as="sourcePoint" />
            <mxPoint x="790" y="771" as="targetPoint" />
            <Array as="points">
              <mxPoint x="790" y="701" />
              <mxPoint x="770" y="731" />
              <mxPoint x="790" y="761" />
            </Array>
          </mxGeometry>
        </mxCell>
        <mxCell id="EyhtXwN8njXN5byT3Yx3-77" value="" style="endArrow=none;html=1;rounded=0;entryX=1;entryY=0.5;entryDx=0;entryDy=0;" parent="1" edge="1">
          <mxGeometry width="50" height="50" relative="1" as="geometry">
            <mxPoint x="820" y="821" as="sourcePoint" />
            <mxPoint x="770" y="821" as="targetPoint" />
          </mxGeometry>
        </mxCell>
        <mxCell id="EyhtXwN8njXN5byT3Yx3-78" value="MongoDB&lt;br&gt;컨테이너" style="whiteSpace=wrap;html=1;" parent="1" vertex="1">
          <mxGeometry x="820" y="791" width="120" height="60" as="geometry" />
        </mxCell>
        <mxCell id="EyhtXwN8njXN5byT3Yx3-79" style="edgeStyle=orthogonalEdgeStyle;rounded=0;orthogonalLoop=1;jettySize=auto;html=1;entryX=0;entryY=0.192;entryDx=0;entryDy=0;entryPerimeter=0;" parent="1" source="EyhtXwN8njXN5byT3Yx3-50" target="EyhtXwN8njXN5byT3Yx3-49" edge="1">
          <mxGeometry relative="1" as="geometry" />
        </mxCell>
        <mxCell id="EyhtXwN8njXN5byT3Yx3-80" style="edgeStyle=orthogonalEdgeStyle;rounded=0;orthogonalLoop=1;jettySize=auto;html=1;entryX=0;entryY=0.528;entryDx=0;entryDy=0;entryPerimeter=0;" parent="1" source="EyhtXwN8njXN5byT3Yx3-50" target="EyhtXwN8njXN5byT3Yx3-49" edge="1">
          <mxGeometry relative="1" as="geometry" />
        </mxCell>
        <mxCell id="EyhtXwN8njXN5byT3Yx3-81" style="edgeStyle=orthogonalEdgeStyle;rounded=0;orthogonalLoop=1;jettySize=auto;html=1;entryX=0;entryY=0.879;entryDx=0;entryDy=0;entryPerimeter=0;" parent="1" source="EyhtXwN8njXN5byT3Yx3-50" target="EyhtXwN8njXN5byT3Yx3-49" edge="1">
          <mxGeometry relative="1" as="geometry" />
        </mxCell>
        <mxCell id="EyhtXwN8njXN5byT3Yx3-82" value="앱2" style="text;html=1;align=center;verticalAlign=middle;resizable=0;points=[];autosize=1;strokeColor=none;fillColor=none;" parent="1" vertex="1">
          <mxGeometry x="400" y="531" width="40" height="30" as="geometry" />
        </mxCell>
        <mxCell id="EyhtXwN8njXN5byT3Yx3-84" value="CPU 100%" style="text;html=1;align=center;verticalAlign=middle;resizable=0;points=[];autosize=1;strokeColor=none;fillColor=none;" parent="1" vertex="1">
          <mxGeometry x="380" y="626" width="80" height="30" as="geometry" />
        </mxCell>
        <mxCell id="EyhtXwN8njXN5byT3Yx3-85" value="CPU 10%" style="text;html=1;align=center;verticalAlign=middle;resizable=0;points=[];autosize=1;strokeColor=none;fillColor=none;" parent="1" vertex="1">
          <mxGeometry x="540" y="429" width="80" height="30" as="geometry" />
        </mxCell>
        <mxCell id="EyhtXwN8njXN5byT3Yx3-86" value="CPU 10%" style="text;html=1;align=center;verticalAlign=middle;resizable=0;points=[];autosize=1;strokeColor=none;fillColor=none;" parent="1" vertex="1">
          <mxGeometry x="540" y="611" width="80" height="30" as="geometry" />
        </mxCell>
        <mxCell id="EyhtXwN8njXN5byT3Yx3-87" value="CPU 80%" style="text;html=1;align=center;verticalAlign=middle;resizable=0;points=[];autosize=1;strokeColor=none;fillColor=none;" parent="1" vertex="1">
          <mxGeometry x="540" y="791" width="80" height="30" as="geometry" />
        </mxCell>
        <mxCell id="EyhtXwN8njXN5byT3Yx3-88" value="CPU 6%" style="text;html=1;align=center;verticalAlign=middle;resizable=0;points=[];autosize=1;strokeColor=none;fillColor=none;" parent="1" vertex="1">
          <mxGeometry x="675" y="371" width="70" height="30" as="geometry" />
        </mxCell>
        <mxCell id="EyhtXwN8njXN5byT3Yx3-89" value="CPU 4%" style="text;html=1;align=center;verticalAlign=middle;resizable=0;points=[];autosize=1;strokeColor=none;fillColor=none;" parent="1" vertex="1">
          <mxGeometry x="675" y="463" width="70" height="30" as="geometry" />
        </mxCell>
        <mxCell id="EyhtXwN8njXN5byT3Yx3-90" value="CPU 4%" style="text;html=1;align=center;verticalAlign=middle;resizable=0;points=[];autosize=1;strokeColor=none;fillColor=none;" parent="1" vertex="1">
          <mxGeometry x="845" y="348" width="70" height="30" as="geometry" />
        </mxCell>
        <mxCell id="EyhtXwN8njXN5byT3Yx3-91" value="CPU 2%" style="text;html=1;align=center;verticalAlign=middle;resizable=0;points=[];autosize=1;strokeColor=none;fillColor=none;" parent="1" vertex="1">
          <mxGeometry x="845" y="408" width="70" height="30" as="geometry" />
        </mxCell>
        <mxCell id="EyhtXwN8njXN5byT3Yx3-92" value="CPU 4%" style="text;html=1;align=center;verticalAlign=middle;resizable=0;points=[];autosize=1;strokeColor=none;fillColor=none;" parent="1" vertex="1">
          <mxGeometry x="845" y="468" width="70" height="30" as="geometry" />
        </mxCell>
        <mxCell id="EyhtXwN8njXN5byT3Yx3-93" value="CPU 6%" style="text;html=1;align=center;verticalAlign=middle;resizable=0;points=[];autosize=1;strokeColor=none;fillColor=none;" parent="1" vertex="1">
          <mxGeometry x="675" y="553" width="70" height="30" as="geometry" />
        </mxCell>
        <mxCell id="EyhtXwN8njXN5byT3Yx3-94" value="CPU 4%" style="text;html=1;align=center;verticalAlign=middle;resizable=0;points=[];autosize=1;strokeColor=none;fillColor=none;" parent="1" vertex="1">
          <mxGeometry x="675" y="643" width="70" height="30" as="geometry" />
        </mxCell>
        <mxCell id="EyhtXwN8njXN5byT3Yx3-95" value="CPU 4%" style="text;html=1;align=center;verticalAlign=middle;resizable=0;points=[];autosize=1;strokeColor=none;fillColor=none;" parent="1" vertex="1">
          <mxGeometry x="845" y="528" width="70" height="30" as="geometry" />
        </mxCell>
        <mxCell id="EyhtXwN8njXN5byT3Yx3-96" value="CPU 2%" style="text;html=1;align=center;verticalAlign=middle;resizable=0;points=[];autosize=1;strokeColor=none;fillColor=none;" parent="1" vertex="1">
          <mxGeometry x="845" y="588" width="70" height="30" as="geometry" />
        </mxCell>
        <mxCell id="EyhtXwN8njXN5byT3Yx3-97" value="CPU 4%" style="text;html=1;align=center;verticalAlign=middle;resizable=0;points=[];autosize=1;strokeColor=none;fillColor=none;" parent="1" vertex="1">
          <mxGeometry x="845" y="648" width="70" height="30" as="geometry" />
        </mxCell>
        <mxCell id="EyhtXwN8njXN5byT3Yx3-98" value="CPU 50%" style="text;html=1;align=center;verticalAlign=middle;resizable=0;points=[];autosize=1;strokeColor=none;fillColor=none;" parent="1" vertex="1">
          <mxGeometry x="670" y="738" width="80" height="30" as="geometry" />
        </mxCell>
        <mxCell id="EyhtXwN8njXN5byT3Yx3-99" value="CPU 30%" style="text;html=1;align=center;verticalAlign=middle;resizable=0;points=[];autosize=1;strokeColor=none;fillColor=none;" parent="1" vertex="1">
          <mxGeometry x="670" y="823" width="80" height="30" as="geometry" />
        </mxCell>
        <mxCell id="EyhtXwN8njXN5byT3Yx3-100" value="CPU 30%" style="text;html=1;align=center;verticalAlign=middle;resizable=0;points=[];autosize=1;strokeColor=none;fillColor=none;" parent="1" vertex="1">
          <mxGeometry x="840" y="708" width="80" height="30" as="geometry" />
        </mxCell>
        <mxCell id="EyhtXwN8njXN5byT3Yx3-101" value="CPU 20%" style="text;html=1;align=center;verticalAlign=middle;resizable=0;points=[];autosize=1;strokeColor=none;fillColor=none;" parent="1" vertex="1">
          <mxGeometry x="840" y="768" width="80" height="30" as="geometry" />
        </mxCell>
        <mxCell id="EyhtXwN8njXN5byT3Yx3-102" value="CPU 30%" style="text;html=1;align=center;verticalAlign=middle;resizable=0;points=[];autosize=1;strokeColor=none;fillColor=none;" parent="1" vertex="1">
          <mxGeometry x="840" y="828" width="80" height="30" as="geometry" />
        </mxCell>
        <mxCell id="rrnAhwr2PXYCzn8JFYX0-18" style="edgeStyle=orthogonalEdgeStyle;rounded=0;orthogonalLoop=1;jettySize=auto;html=1;entryX=0;entryY=0.5;entryDx=0;entryDy=0;" edge="1" parent="1" source="rrnAhwr2PXYCzn8JFYX0-1" target="rrnAhwr2PXYCzn8JFYX0-2">
          <mxGeometry relative="1" as="geometry" />
        </mxCell>
        <mxCell id="rrnAhwr2PXYCzn8JFYX0-19" style="edgeStyle=orthogonalEdgeStyle;rounded=0;orthogonalLoop=1;jettySize=auto;html=1;entryX=0;entryY=0.5;entryDx=0;entryDy=0;" edge="1" parent="1" source="rrnAhwr2PXYCzn8JFYX0-1" target="rrnAhwr2PXYCzn8JFYX0-3">
          <mxGeometry relative="1" as="geometry" />
        </mxCell>
        <mxCell id="rrnAhwr2PXYCzn8JFYX0-20" style="edgeStyle=orthogonalEdgeStyle;rounded=0;orthogonalLoop=1;jettySize=auto;html=1;entryX=0;entryY=0.5;entryDx=0;entryDy=0;" edge="1" parent="1" source="rrnAhwr2PXYCzn8JFYX0-1" target="rrnAhwr2PXYCzn8JFYX0-4">
          <mxGeometry relative="1" as="geometry" />
        </mxCell>
        <mxCell id="rrnAhwr2PXYCzn8JFYX0-1" value="Master Node1" style="whiteSpace=wrap;html=1;" vertex="1" parent="1">
          <mxGeometry x="-290" y="576" width="120" height="60" as="geometry" />
        </mxCell>
        <mxCell id="rrnAhwr2PXYCzn8JFYX0-2" value="Work Node1" style="whiteSpace=wrap;html=1;" vertex="1" parent="1">
          <mxGeometry y="416" width="120" height="60" as="geometry" />
        </mxCell>
        <mxCell id="rrnAhwr2PXYCzn8JFYX0-13" style="rounded=0;orthogonalLoop=1;jettySize=auto;html=1;entryX=0;entryY=0.5;entryDx=0;entryDy=0;horizontal=1;strokeColor=default;startArrow=none;startFill=0;endArrow=none;endFill=0;" edge="1" parent="1" source="rrnAhwr2PXYCzn8JFYX0-3" target="rrnAhwr2PXYCzn8JFYX0-12">
          <mxGeometry relative="1" as="geometry" />
        </mxCell>
        <mxCell id="rrnAhwr2PXYCzn8JFYX0-3" value="Work Node2" style="whiteSpace=wrap;html=1;" vertex="1" parent="1">
          <mxGeometry y="576" width="120" height="60" as="geometry" />
        </mxCell>
        <mxCell id="rrnAhwr2PXYCzn8JFYX0-15" style="edgeStyle=orthogonalEdgeStyle;rounded=0;orthogonalLoop=1;jettySize=auto;html=1;entryX=0;entryY=0.5;entryDx=0;entryDy=0;endArrow=none;endFill=0;" edge="1" parent="1" source="rrnAhwr2PXYCzn8JFYX0-4" target="rrnAhwr2PXYCzn8JFYX0-14">
          <mxGeometry relative="1" as="geometry" />
        </mxCell>
        <mxCell id="rrnAhwr2PXYCzn8JFYX0-17" style="edgeStyle=orthogonalEdgeStyle;rounded=0;orthogonalLoop=1;jettySize=auto;html=1;entryX=0;entryY=0.5;entryDx=0;entryDy=0;endArrow=none;endFill=0;" edge="1" parent="1" source="rrnAhwr2PXYCzn8JFYX0-4" target="rrnAhwr2PXYCzn8JFYX0-16">
          <mxGeometry relative="1" as="geometry" />
        </mxCell>
        <mxCell id="rrnAhwr2PXYCzn8JFYX0-4" value="Work Node3" style="whiteSpace=wrap;html=1;" vertex="1" parent="1">
          <mxGeometry y="706" width="120" height="60" as="geometry" />
        </mxCell>
        <mxCell id="rrnAhwr2PXYCzn8JFYX0-5" value="" style="endArrow=none;html=1;rounded=0;entryX=0;entryY=0.5;entryDx=0;entryDy=0;exitX=0;exitY=0.5;exitDx=0;exitDy=0;" edge="1" parent="1" source="rrnAhwr2PXYCzn8JFYX0-9" target="rrnAhwr2PXYCzn8JFYX0-6">
          <mxGeometry width="50" height="50" relative="1" as="geometry">
            <mxPoint x="170" y="456" as="sourcePoint" />
            <mxPoint x="180" y="416" as="targetPoint" />
            <Array as="points">
              <mxPoint x="140" y="506" />
              <mxPoint x="120" y="446" />
              <mxPoint x="140" y="386" />
            </Array>
          </mxGeometry>
        </mxCell>
        <mxCell id="rrnAhwr2PXYCzn8JFYX0-6" value="Pod1의&lt;br&gt;Node 컨테이너" style="whiteSpace=wrap;html=1;" vertex="1" parent="1">
          <mxGeometry x="180" y="356" width="120" height="60" as="geometry" />
        </mxCell>
        <mxCell id="rrnAhwr2PXYCzn8JFYX0-7" value="Pod2의&lt;br&gt;Node 컨테이너" style="whiteSpace=wrap;html=1;" vertex="1" parent="1">
          <mxGeometry x="180" y="416" width="120" height="60" as="geometry" />
        </mxCell>
        <mxCell id="rrnAhwr2PXYCzn8JFYX0-9" value="Pod3의&lt;br&gt;Apache 컨테이너" style="whiteSpace=wrap;html=1;" vertex="1" parent="1">
          <mxGeometry x="180" y="476" width="120" height="60" as="geometry" />
        </mxCell>
        <mxCell id="rrnAhwr2PXYCzn8JFYX0-11" value="" style="endArrow=none;html=1;rounded=0;entryX=0;entryY=0.5;entryDx=0;entryDy=0;" edge="1" parent="1" target="rrnAhwr2PXYCzn8JFYX0-7">
          <mxGeometry width="50" height="50" relative="1" as="geometry">
            <mxPoint x="120" y="446" as="sourcePoint" />
            <mxPoint x="170" y="396" as="targetPoint" />
          </mxGeometry>
        </mxCell>
        <mxCell id="rrnAhwr2PXYCzn8JFYX0-12" value="Pod1의&lt;br&gt;MongoDB 컨테이너" style="whiteSpace=wrap;html=1;" vertex="1" parent="1">
          <mxGeometry x="180" y="576" width="120" height="60" as="geometry" />
        </mxCell>
        <mxCell id="rrnAhwr2PXYCzn8JFYX0-14" value="Pod5의&lt;br&gt;Apache 컨테이너" style="whiteSpace=wrap;html=1;" vertex="1" parent="1">
          <mxGeometry x="180" y="666" width="120" height="60" as="geometry" />
        </mxCell>
        <mxCell id="rrnAhwr2PXYCzn8JFYX0-16" value="Pod6의&lt;br&gt;MongoDB 컨테이너" style="whiteSpace=wrap;html=1;" vertex="1" parent="1">
          <mxGeometry x="180" y="746" width="120" height="60" as="geometry" />
        </mxCell>
        <mxCell id="rrnAhwr2PXYCzn8JFYX0-21" value="쿠버네티스 오브젝트를 정의함에 따라, 개발팀의 구조, 배포 정책, 프로세스를 자유롭게 표현 가능하다." style="text;html=1;align=center;verticalAlign=middle;resizable=0;points=[];autosize=1;strokeColor=none;fillColor=none;fontSize=24;" vertex="1" parent="1">
          <mxGeometry x="-200" y="220" width="1110" height="40" as="geometry" />
        </mxCell>
      </root>
    </mxGraphModel>
  </diagram>
</mxfile>
